<?xml version="1.0" encoding="iso-8859-1"?>
<!-- Generator: Adobe Illustrator 19.0.0, SVG Export Plug-In . SVG Version: 6.00 Build 0)  -->
<svg version="1.1" id="Layer_1" xmlns="http://www.w3.org/2000/svg" xmlns:xlink="http://www.w3.org/1999/xlink" x="0px" y="0px"
	 viewBox="0 0 512 512" style="enable-background:new 0 0 512 512;" xml:space="preserve">
<path style="fill:#FF507D;" d="M256,15.516v80.162c0,8.854,7.178,16.032,16.032,16.032h15.988c6.901,0,13.765-2.652,18.152-7.979
	c8.078-9.808,20.297-16.07,33.997-16.07c27.454,0,49.047,25.093,43.094,53.595c-3.553,17.014-17.541,30.611-34.628,33.792
	c-16.879,3.142-32.422-3.35-42.154-14.908c-4.498-5.343-11.172-8.35-18.156-8.35h-16.304c-8.849,0-16.022,7.173-16.022,16.022V256
	h-88.188c-8.849,0-16.022-7.173-16.022-16.022v-16.304c0-6.984,3.008-13.658,8.35-18.156c11.559-9.732,18.051-25.275,14.908-42.154
	c-3.181-17.087-16.779-31.075-33.792-34.628c-28.502-5.952-53.595,15.64-53.595,43.094c0,13.7,6.261,25.919,16.07,33.997
	c5.327,4.387,7.979,11.251,7.979,18.152v15.988c0,8.854-7.178,16.032-16.032,16.032H15.516c-4.427,0-8.016-3.589-8.016-8.016V39.565
	C7.5,21.856,21.856,7.5,39.565,7.5h208.419C252.411,7.5,256,11.089,256,15.516z"/>
<path style="fill:#FFDC64;" d="M496.484,256h-80.161c-8.854,0-16.032,7.178-16.032,16.032v15.988c0,6.901,2.652,13.765,7.979,18.152
	c9.808,8.078,16.07,20.297,16.07,33.997c0,27.454-25.093,49.047-53.595,43.094c-17.014-3.553-30.611-17.541-33.792-34.628
	c-3.142-16.879,3.35-32.422,14.908-42.154c5.343-4.498,8.35-11.172,8.35-18.156v-16.304c0-8.849-7.173-16.022-16.022-16.022H256
	v-88.188c0-8.849,7.173-16.022,16.022-16.022h16.304c6.984,0,13.658,3.008,18.156,8.35c9.732,11.559,25.275,18.051,42.154,14.908
	c17.087-3.181,31.075-16.779,34.628-33.792c5.952-28.502-15.64-53.595-43.094-53.595c-13.7,0-25.919,6.261-33.997,16.07
	c-4.387,5.327-11.251,7.979-18.152,7.979h-15.988c-8.854,0-16.032-7.178-16.032-16.032V15.516c0-4.427,3.589-8.016,8.016-8.016
	h208.419c17.709,0,32.065,14.356,32.065,32.065v208.419C504.5,252.411,500.911,256,496.484,256z"/>
<path style="fill:#B4E66E;" d="M256,496.484v-80.161c0-8.854-7.178-16.032-16.032-16.032H223.98c-6.901,0-13.765,2.652-18.152,7.979
	c-8.078,9.808-20.297,16.07-33.997,16.07c-27.454,0-49.047-25.093-43.094-53.595c3.553-17.014,17.541-30.611,34.628-33.792
	c16.879-3.142,32.422,3.35,42.154,14.908c4.498,5.343,11.172,8.35,18.156,8.35h16.304c8.849,0,16.022-7.173,16.022-16.022V256
	h88.188c8.849,0,16.022,7.173,16.022,16.022v16.304c0,6.984-3.008,13.658-8.35,18.156c-11.559,9.732-18.051,25.275-14.908,42.154
	c3.181,17.087,16.779,31.075,33.792,34.628c28.502,5.952,53.595-15.64,53.595-43.094c0-13.7-6.261-25.919-16.07-33.997
	c-5.327-4.387-7.979-11.251-7.979-18.152v-15.988c0-8.854,7.178-16.032,16.032-16.032h80.161c4.427,0,8.016,3.589,8.016,8.016
	v208.419c0,17.709-14.356,32.065-32.065,32.065H264.016C259.589,504.5,256,500.911,256,496.484z"/>
<path style="fill:#00C3FF;" d="M15.516,256h80.162c8.854,0,16.032-7.178,16.032-16.032V223.98c0-6.901-2.652-13.765-7.979-18.152
	c-9.808-8.078-16.07-20.297-16.07-33.997c0-27.454,25.093-49.047,53.595-43.094c17.014,3.553,30.611,17.541,33.792,34.628
	c3.142,16.879-3.35,32.422-14.908,42.154c-5.343,4.498-8.35,11.172-8.35,18.156v16.304c0,8.849,7.173,16.022,16.022,16.022H256
	v88.188c0,8.849-7.173,16.022-16.022,16.022h-16.304c-6.984,0-13.658-3.008-18.156-8.35c-9.732-11.559-25.275-18.051-42.154-14.908
	c-17.087,3.181-31.075,16.779-34.628,33.792c-5.952,28.502,15.64,53.595,43.094,53.595c13.7,0,25.919-6.261,33.997-16.07
	c4.387-5.327,11.251-7.979,18.152-7.979h15.988c8.854,0,16.032,7.178,16.032,16.032v80.161c0,4.427-3.589,8.016-8.016,8.016H39.565
	C21.856,504.5,7.5,490.144,7.5,472.435V264.016C7.5,259.589,11.089,256,15.516,256z"/>
<g>
	<path style="fill:#00AAF0;" d="M31.548,472.435V264.016c0-4.427,3.589-8.016,8.016-8.016H15.516c-4.427,0-8.016,3.589-8.016,8.016
		v208.419c0,17.709,14.356,32.065,32.065,32.065h24.048C45.904,504.5,31.548,490.144,31.548,472.435z"/>
	<path style="fill:#00AAF0;" d="M103.731,205.827c5.327,4.387,7.979,11.251,7.979,18.152v15.988c0,8.854-7.178,16.032-16.032,16.032
		h16.032c8.855,0,16.033-7.178,16.032-16.032v-15.988c0-6.901-2.652-13.765-7.979-18.152c-9.808-8.078-16.069-20.296-16.069-33.997
		c0-21.631,15.601-39.56,36.15-43.307c-27.91-4.955-52.182,16.311-52.182,43.307C87.661,185.531,93.922,197.749,103.731,205.827z"/>
</g>
<path style="fill:#D23C69;" d="M31.549,247.984V39.565C31.549,21.856,45.904,7.5,63.613,7.5H39.565
	C21.856,7.5,7.5,21.856,7.5,39.565v208.419c0,4.427,3.589,8.016,8.016,8.016h24.049C35.138,256,31.549,252.411,31.549,247.984z"/>
<g>
	<path style="fill:#FFC850;" d="M348.636,175.049c-0.058,0.011-0.115,0.01-0.173,0.021c5.154,0.918,10.591,1.025,16.205-0.021
		c17.087-3.181,31.075-16.778,34.628-33.792c5.952-28.502-15.64-53.595-43.095-53.595c-2.745,0-5.408,0.316-8.012,0.797
		c23.456,4.324,40.431,27.148,35.074,52.799C379.711,158.27,365.723,171.867,348.636,175.049z"/>
	<path style="fill:#FFC850;" d="M272.032,111.71h15.988c0.007,0,0.015-0.002,0.023-0.002c-8.844-0.012-16.011-7.183-16.011-16.03
		V15.516c0-4.427,3.589-8.016,8.016-8.016h-16.032c-4.427,0-8.016,3.589-8.016,8.016v80.161
		C256,104.532,263.178,111.71,272.032,111.71z"/>
	<path style="fill:#FFC850;" d="M288.054,151.79h-16.032c-8.848,0-16.021,7.173-16.021,16.021V256h16.032v-88.188
		C272.032,158.963,279.205,151.79,288.054,151.79z"/>
	<path style="fill:#FFC850;" d="M386.776,383.264c-17.014-3.553-30.611-17.541-33.792-34.628
		c-3.143-16.879,3.35-32.422,14.908-42.154c5.343-4.498,8.35-11.172,8.35-18.157v-16.304c0-8.848-7.173-16.021-16.022-16.021
		h-16.032c8.848,0,16.022,7.173,16.022,16.021v16.304c0,6.984-3.008,13.658-8.35,18.157c-11.558,9.732-18.05,25.275-14.908,42.154
		c3.181,17.087,16.778,31.075,33.792,34.628c6.045,1.262,11.914,1.222,17.445,0.213
		C387.715,383.393,387.251,383.363,386.776,383.264z"/>
</g>
<g>
	<path style="fill:#A0D755;" d="M272.032,344.188V256H256v88.188c0,8.849-7.173,16.022-16.021,16.022h16.032
		C264.859,360.21,272.032,353.037,272.032,344.188z"/>
	<path style="fill:#A0D755;" d="M144.768,370.744c3.553-17.014,17.541-30.611,34.628-33.793c0.058-0.011,0.114-0.009,0.171-0.02
		c-5.153-0.918-10.59-1.025-16.203,0.02c-17.087,3.181-31.075,16.779-34.628,33.793c-5.952,28.502,15.64,53.595,43.095,53.595
		c2.745,0,5.407-0.316,8.012-0.797C156.386,419.219,139.411,396.394,144.768,370.744z"/>
	<path style="fill:#A0D755;" d="M272.032,496.484v-80.162c0-8.854-7.178-16.032-16.032-16.032h-15.988
		c-0.007,0-0.013,0.002-0.02,0.002c8.843,0.014,16.008,7.184,16.008,16.03v80.162c0,4.427,3.589,8.016,8.016,8.016h16.032
		C275.621,504.5,272.032,500.911,272.032,496.484z"/>
</g>
<path d="M472.436,0H39.564C17.749,0,0,17.749,0,39.564v432.871C0,494.251,17.749,512,39.564,512h432.871
	C494.251,512,512,494.251,512,472.436V39.564C512,17.749,494.251,0,472.436,0z M15,472.436V263.5h80.678
	c12.976,0,23.532-10.546,23.532-23.508v-16.059c0-9.58-3.904-18.289-10.711-23.896c-8.476-6.98-13.337-17.262-13.337-28.207
	c0-11.066,4.932-21.422,13.532-28.411c8.599-6.988,19.907-9.665,31.03-7.342c14.075,2.938,25.308,14.456,27.953,28.658
	c2.482,13.334-2.141,26.436-12.366,35.045c-7.003,5.896-11.019,14.605-11.019,23.894v16.304c0,12.97,10.552,23.521,23.521,23.521
	H248.5v80.678c0,4.705-3.816,8.532-8.508,8.532h-16.371c-4.819,0-9.326-2.07-12.365-5.68
	c-12.134-14.412-30.549-20.938-49.266-17.452c-20.114,3.745-36.428,19.673-40.596,39.633c-3.25,15.563,0.536,31.438,10.385,43.557
	c9.85,12.12,24.448,19.071,40.051,19.071c15.443,0,29.945-6.853,39.787-18.802c2.746-3.334,7.235-5.247,12.316-5.247h16.059
	c4.691,0,8.508,3.827,8.508,8.532V497H39.564C26.02,497,15,485.98,15,472.436z M472.436,497H263.5v-80.678
	c0-12.976-10.545-23.532-23.508-23.532h-16.059c-9.579,0-18.289,3.904-23.895,10.711c-6.981,8.477-17.263,13.338-28.208,13.338
	c-11.066,0-21.422-4.932-28.411-13.531c-6.988-8.599-9.665-19.909-7.342-31.03c2.939-14.075,14.456-25.309,28.658-27.953
	c13.333-2.484,26.435,2.14,35.046,12.367c5.896,7.002,14.585,11.019,23.839,11.019h16.371c12.962,0,23.508-10.557,23.508-23.532
	V263.5h80.678c4.705,0,8.532,3.827,8.532,8.532v16.293c0,4.853-2.07,9.379-5.682,12.419c-14.411,12.135-20.935,30.552-17.45,49.266
	c3.745,20.113,19.672,36.428,39.633,40.596c3.654,0.763,7.325,1.138,10.961,1.138c11.849,0,23.323-3.985,32.596-11.522
	c12.12-9.851,19.071-24.448,19.071-40.052c0-15.444-6.853-29.945-18.801-39.785c-3.286-2.706-5.248-7.328-5.248-12.363v-15.988
	c0-4.705,3.827-8.532,8.532-8.532h40.081c4.143,0,7.5-3.357,7.5-7.5s-3.357-7.5-7.5-7.5h-40.081
	c-12.976,0-23.532,10.557-23.532,23.532v15.988c0,9.608,3.904,18.335,10.712,23.941c8.476,6.98,13.337,17.262,13.337,28.207
	c0,11.066-4.932,21.423-13.531,28.411c-8.599,6.99-19.911,9.668-31.03,7.342c-14.075-2.938-25.309-14.456-27.953-28.658
	c-2.482-13.334,2.141-26.436,12.365-35.045c7.004-5.896,11.021-14.605,11.021-23.894v-16.293c0-12.976-10.557-23.532-23.532-23.532
	H263.5v-80.688c0-4.699,3.822-8.521,8.521-8.521h16.304c4.853,0,9.38,2.07,12.419,5.68c12.134,14.412,30.55,20.938,49.266,17.452
	c20.113-3.745,36.428-19.672,40.596-39.633c3.25-15.562-0.535-31.438-10.385-43.557c-9.851-12.12-24.448-19.071-40.052-19.071
	c-15.444,0-29.945,6.853-39.785,18.801c-2.747,3.335-7.236,5.248-12.317,5.248h-16.059c-4.691,0-8.508-3.827-8.508-8.532V55.597
	c0-4.143-3.357-7.5-7.5-7.5c-4.142,0-7.5,3.357-7.5,7.5v40.081c0,12.976,10.546,23.532,23.508,23.532h16.059
	c9.579,0,18.289-3.904,23.896-10.712c6.98-8.476,17.262-13.337,28.207-13.337c11.066,0,21.422,4.932,28.411,13.532
	c6.988,8.598,9.665,19.908,7.342,31.029c-2.938,14.075-14.456,25.309-28.658,27.953c-13.334,2.485-26.436-2.141-35.045-12.367
	c-5.896-7.002-14.605-11.019-23.894-11.019h-16.304c-12.97,0-23.521,10.552-23.521,23.521v80.69h-80.688
	c-4.699,0-8.521-3.822-8.521-8.521v-16.304c0-4.854,2.07-9.38,5.68-12.419c14.412-12.135,20.936-30.552,17.451-49.266
	c-3.745-20.113-19.672-36.428-39.632-40.596c-15.563-3.249-31.438,0.535-43.558,10.385c-12.12,9.851-19.071,24.448-19.071,40.052
	c0,15.444,6.853,29.945,18.802,39.785c3.334,2.746,5.247,7.236,5.247,12.318v16.058c0,4.691-3.828,8.508-8.532,8.508H15V39.564
	C15,26.02,26.02,15,39.564,15H248.5v8.532c0,4.143,3.358,7.5,7.5,7.5c4.143,0,7.5-3.357,7.5-7.5V15h208.936
	C485.98,15,497,26.02,497,39.564V248.5h-8.532c-4.143,0-7.5,3.357-7.5,7.5s3.357,7.5,7.5,7.5H497v208.936
	C497,485.98,485.98,497,472.436,497z"/>
<g>
</g>
<g>
</g>
<g>
</g>
<g>
</g>
<g>
</g>
<g>
</g>
<g>
</g>
<g>
</g>
<g>
</g>
<g>
</g>
<g>
</g>
<g>
</g>
<g>
</g>
<g>
</g>
<g>
</g>
</svg>
