<?xml version="1.0" encoding="iso-8859-1"?>
<!-- Generator: Adobe Illustrator 19.0.0, SVG Export Plug-In . SVG Version: 6.00 Build 0)  -->
<svg version="1.1" id="Layer_1" xmlns="http://www.w3.org/2000/svg" xmlns:xlink="http://www.w3.org/1999/xlink" x="0px" y="0px"
	 viewBox="0 0 512 512" style="enable-background:new 0 0 512 512;" xml:space="preserve">
<path style="fill:#5A4146;" d="M199.887,183.855v5.626c0,6.893,1.111,13.74,3.291,20.279l12.741,38.224h24.048v-88.177h-16.032
	C210.654,159.806,199.887,170.573,199.887,183.855z"/>
<path style="fill:#694B4B;" d="M310.262,198.348l-14.182,49.636l-64.129-56.113c-8.854,0-16.032-7.178-16.032-16.032l0,0
	c0-13.282,10.767-24.048,24.048-24.048h72.145v33.344C312.113,189.604,311.49,194.051,310.262,198.348z"/>
<rect x="231.95" y="272.03" style="fill:#E6AF78;" width="48.1" height="48.1"/>
<path style="fill:#AFB9D2;" d="M318.719,302.528l-38.673-11.049l-9.48,11.295c-7.6,9.055-21.533,9.055-29.133,0.001l-9.482-11.296
	l-38.671,11.049c-10.324,2.95-17.442,12.386-17.442,23.123v90.672h160.323v-90.671C336.161,314.914,329.043,305.477,318.719,302.528
	z"/>
<path style="fill:#F0C087;" d="M256,280.048L256,280.048c-26.563,0-48.097-21.534-48.097-48.097l0,0
	c0-10.265,4.078-20.11,11.336-27.369l7.895-7.895c3.078-3.078,7.287-4.848,11.637-4.711c25.625,0.808,48.307,6.298,60.706,18.407
	c3.035,2.964,4.619,7.111,4.619,11.353v10.214C304.097,258.515,282.563,280.048,256,280.048z"/>
<path style="fill:#E6AF78;" d="M231.952,231.952c0-9.247,7.766-16.597,16.994-16.009c16.183,1.032,40.196,3.737,54.928,10.824
	c-0.481-3.382-1.934-13.977-4.397-16.383c-12.398-12.109-35.08-17.599-60.705-18.407h-0.001l0,0
	c-4.35-0.137-8.559,1.634-11.637,4.711l-7.895,7.895c-7.259,7.259-11.337,17.103-11.337,27.369l0,0
	c0,21.934,14.697,40.402,34.77,46.185c-6.681-8.244-10.722-18.707-10.722-30.153v-16.032H231.952z"/>
<g>
	<path style="fill:#959CB5;" d="M207.903,349.537c0-6.378-2.534-12.495-7.044-17.005l-20.635-20.635
		c-2.758,3.942-4.386,8.688-4.386,13.754v90.672h32.065V349.537z"/>
	<path style="fill:#959CB5;" d="M304.097,349.537c0-6.378,2.534-12.495,7.044-17.005l20.635-20.635
		c2.758,3.942,4.386,8.688,4.386,13.754v90.672h-32.065V349.537z"/>
</g>
<path style="fill:#AFB9D2;" d="M496.484,215.919h-21.316c-3.787,0-6.982-2.675-7.791-6.376
	c-5.54-25.337-15.496-49.016-29.056-70.176c-2.044-3.19-1.671-7.336,1.008-10.015l15.06-15.06c3.13-3.131,3.13-8.206,0-11.337
	l-45.346-45.346c-3.13-3.13-8.206-3.13-11.336,0l-15.06,15.06c-2.679,2.679-6.825,3.053-10.015,1.008
	c-21.16-13.56-44.839-23.516-70.176-29.056c-3.7-0.809-6.375-4.003-6.375-7.791V15.516c0-4.427-3.589-8.016-8.016-8.016h-64.129
	c-4.427,0-8.016,3.589-8.016,8.016v21.316c0,3.787-2.675,6.982-6.375,7.791c-25.337,5.54-49.016,15.496-70.176,29.056
	c-3.19,2.045-7.336,1.671-10.015-1.008l-15.06-15.06c-3.13-3.13-8.206-3.13-11.336,0l-45.346,45.346c-3.13,3.13-3.13,8.206,0,11.337
	l15.06,15.06c2.679,2.679,3.053,6.825,1.008,10.015c-13.56,21.16-23.516,44.839-29.056,70.176c-0.809,3.7-4.003,6.376-7.791,6.376
	H15.516c-4.427,0-8.016,3.589-8.016,8.016v64.129c0,4.427,3.589,8.016,8.016,8.016h21.316c3.787,0,6.982,2.675,7.791,6.375
	c5.54,25.337,15.496,49.016,29.056,70.176c2.044,3.19,1.671,7.335-1.008,10.014l-15.06,15.06c-3.13,3.13-3.13,8.206,0,11.336
	l45.346,45.346c3.13,3.13,8.206,3.13,11.336,0l15.06-15.06c2.679-2.679,6.825-3.052,10.015-1.008
	c21.16,13.56,44.839,23.516,70.176,29.056c3.7,0.809,6.375,4.004,6.375,7.791v21.316c0,4.427,3.589,8.016,8.016,8.016h64.129
	c4.427,0,8.016-3.589,8.016-8.016v-21.316c0-3.787,2.675-6.982,6.375-7.791c25.337-5.539,49.016-15.495,70.176-29.056
	c3.19-2.044,7.336-1.671,10.015,1.008l15.06,15.06c3.13,3.13,8.206,3.13,11.336,0l45.346-45.346c3.13-3.13,3.13-8.206,0-11.336
	l-15.06-15.06c-2.679-2.679-3.053-6.824-1.008-10.014c13.56-21.16,23.516-44.839,29.056-70.176c0.809-3.7,4.003-6.375,7.791-6.375
	h21.316c4.427,0,8.016-3.589,8.016-8.016v-64.129C504.5,219.508,500.911,215.919,496.484,215.919z M256,408.306
	c-84.117,0-152.306-68.19-152.306-152.306S171.883,103.694,256,103.694S408.306,171.883,408.306,256S340.117,408.306,256,408.306z"
	/>
<path style="fill:#959CB5;" d="M256,79.645c-97.398,0-176.355,78.957-176.355,176.355S158.602,432.355,256,432.355
	S432.355,353.398,432.355,256S353.398,79.645,256,79.645z M256,408.306c-84.117,0-152.306-68.19-152.306-152.306
	S171.883,103.694,256,103.694S408.306,171.883,408.306,256S340.117,408.306,256,408.306z"/>
<path d="M496.484,208.419h-21.316c-0.248,0-0.412-0.239-0.464-0.478c-5.66-25.886-15.776-50.319-30.067-72.62
	c-0.121-0.188-0.194-0.475-0.004-0.666l15.06-15.06c6.049-6.049,6.05-15.893,0-21.943l-45.346-45.346
	c-6.05-6.05-15.893-6.049-21.943,0l-15.06,15.061c-0.191,0.189-0.478,0.117-0.665-0.003c-22.302-14.292-46.735-24.408-72.621-30.068
	c-0.237-0.052-0.477-0.215-0.477-0.463V15.516C303.581,6.96,296.62,0,288.064,0h-64.129c-8.556,0-15.516,6.96-15.516,15.516v21.316
	c0,0.248-0.239,0.412-0.478,0.464c-25.885,5.66-50.318,15.776-72.62,30.067c-0.188,0.122-0.474,0.194-0.666,0.004l-15.06-15.061
	c-6.05-6.05-15.893-6.049-21.943,0L52.307,97.654c-6.049,6.05-6.049,15.894,0,21.943l15.06,15.06c0.19,0.19,0.117,0.478-0.003,0.666
	c-14.292,22.301-24.408,46.734-30.068,72.621c-0.052,0.237-0.215,0.477-0.463,0.477H15.516C6.96,208.419,0,215.38,0,223.936v64.129
	c0,8.556,6.96,15.516,15.516,15.516h21.316c0.248,0,0.412,0.239,0.464,0.478c5.66,25.886,15.776,50.319,30.067,72.62
	c0.121,0.188,0.194,0.475,0.004,0.666l-15.06,15.06c-6.05,6.05-6.05,15.893,0,21.943l45.346,45.346
	c6.051,6.051,15.894,6.05,21.943,0l15.06-15.06c0.19-0.19,0.477-0.117,0.666,0.003c22.301,14.292,46.734,24.408,72.621,30.068
	c0.237,0.052,0.477,0.215,0.477,0.463v21.316c0,8.556,6.96,15.516,15.516,15.516h64.129c8.556,0,15.516-6.96,15.516-15.516v-21.316
	c0-0.248,0.239-0.412,0.478-0.464c25.886-5.66,50.319-15.776,72.62-30.067c0.189-0.121,0.476-0.193,0.666-0.004l15.06,15.06
	c6.051,6.051,15.894,6.05,21.943,0l45.346-45.346c6.05-6.05,6.05-15.893,0-21.943l-15.06-15.06c-0.19-0.19-0.117-0.478,0.003-0.666
	c14.292-22.301,24.408-46.734,30.068-72.621c0.052-0.237,0.215-0.477,0.463-0.477h21.316c8.556,0,15.516-6.96,15.516-15.516v-64.129
	C512,215.38,505.04,208.419,496.484,208.419z M497,288.064c0,0.285-0.231,0.516-0.516,0.516h-21.316
	c-7.322,0-13.538,5.047-15.117,12.273c-5.279,24.143-14.714,46.931-28.044,67.731c-3.988,6.224-3.158,14.188,2.02,19.365
	l15.06,15.06c0.201,0.201,0.201,0.529,0,0.73l-45.346,45.346c-0.201,0.201-0.529,0.202-0.73,0l-15.06-15.06
	c-5.178-5.178-13.141-6.008-19.365-2.019c-20.8,13.329-43.588,22.764-67.73,28.043c-7.227,1.58-12.274,7.796-12.274,15.118v21.316
	c0,0.285-0.231,0.516-0.516,0.516h-64.129c-0.285,0-0.516-0.231-0.516-0.516v-21.316c0-7.322-5.047-13.538-12.273-15.117
	c-24.143-5.279-46.931-14.714-67.731-28.044c-2.63-1.686-5.571-2.51-8.481-2.51c-3.976,0-7.895,1.541-10.884,4.53l-15.06,15.06
	c-0.202,0.201-0.53,0.201-0.73,0L62.914,403.74c-0.201-0.201-0.201-0.529,0-0.73l15.06-15.06c5.178-5.177,6.008-13.141,2.019-19.365
	c-13.329-20.8-22.764-43.588-28.043-67.73c-1.58-7.227-7.796-12.274-15.118-12.274H15.516c-0.285,0-0.516-0.231-0.516-0.516v-64.129
	c0-0.285,0.231-0.516,0.516-0.516h21.316c7.322,0,13.538-5.047,15.117-12.273c5.279-24.143,14.714-46.931,28.044-67.731
	c3.988-6.224,3.158-14.188-2.02-19.365l-15.06-15.06c-0.201-0.201-0.201-0.529,0-0.73l45.346-45.346c0.201-0.201,0.528-0.201,0.73,0
	l15.06,15.061c5.177,5.177,13.141,6.008,19.365,2.019c20.8-13.329,43.588-22.764,67.73-28.043
	c7.227-1.58,12.274-7.796,12.274-15.118V15.516c0-0.285,0.231-0.516,0.516-0.516h64.129c0.285,0,0.516,0.231,0.516,0.516v21.316
	c0,7.322,5.047,13.538,12.273,15.117c24.143,5.279,46.931,14.714,67.731,28.044c6.224,3.988,14.188,3.158,19.365-2.02l15.06-15.061
	c0.201-0.202,0.529-0.201,0.73,0l45.346,45.346c0.202,0.202,0.202,0.53,0,0.731l-15.06,15.06
	c-5.178,5.177-6.008,13.141-2.019,19.365c13.329,20.8,22.764,43.588,28.043,67.73c1.58,7.227,7.796,12.274,15.118,12.274h21.316
	c0.285,0,0.516,0.231,0.516,0.516v64.13H497z"/>
<path d="M111.37,248.845c1.767-35.945,16.767-69.768,42.237-95.238c25.469-25.469,59.291-40.469,95.235-42.237
	c35.7-1.758,70.57,9.613,98.203,32.01c3.219,2.608,7.941,2.114,10.549-1.104s2.114-7.941-1.104-10.549
	c-30.505-24.726-68.995-37.278-108.385-35.339C208.434,98.338,171.107,114.893,143,143c-28.108,28.108-44.662,65.437-46.612,105.108
	c-1.936,39.39,10.616,77.882,35.344,108.387c1.482,1.829,3.647,2.778,5.831,2.778c1.659,0,3.33-0.548,4.718-1.674
	c3.218-2.608,3.712-7.331,1.104-10.549C120.985,319.417,109.615,284.541,111.37,248.845z"/>
<path d="M369.725,154.406c-3.218,2.608-3.712,7.332-1.104,10.549c22.397,27.633,33.766,62.509,32.01,98.204
	c-1.768,35.944-16.768,69.766-42.237,95.235c-4.645,4.645-9.57,8.937-14.733,12.868v-41.01c0-14.012-9.409-26.486-22.882-30.334
	l-27.044-7.727c-3.644-1.041-6.189-4.415-6.188-8.205l0.001-6.256c2.519-1.745,4.921-3.698,7.168-5.878
	c10.886-10.564,16.881-24.734,16.881-39.901V217.69l2.993-5.986c3.287-6.572,5.023-13.931,5.023-21.279V151.79
	c0-4.142-3.358-7.5-7.5-7.5h-72.145c-26.236,0-47.581,21.345-47.581,47.581v0.447c0,6.111,1.444,12.229,4.177,17.693l3.839,7.679
	v12.245c0,19.407,9.563,36.82,24.048,47.298v6.754c0,3.789-2.544,7.163-6.188,8.204l-27.043,7.727
	c-13.472,3.849-22.881,16.323-22.881,30.335v41.017c-1.14-0.869-2.272-1.749-3.389-2.654c-3.217-2.607-7.94-2.114-10.549,1.104
	c-2.608,3.217-2.114,7.94,1.104,10.549c28.457,23.068,63.86,35.54,100.463,35.539c2.634,0,5.279-0.065,7.924-0.195
	c39.672-1.95,77-18.504,105.108-46.612c28.107-28.107,44.662-65.434,46.612-105.104c1.937-39.388-10.613-77.88-35.339-108.386
	C377.665,152.292,372.942,151.798,369.725,154.406z M215.403,229.935v-14.016c0-1.164-0.271-2.313-0.792-3.354l-4.631-9.263
	c-1.697-3.393-2.593-7.191-2.593-10.985v-0.447c0-17.965,14.616-32.581,32.581-32.581h64.645v31.135
	c0,5.032-1.189,10.07-3.439,14.571l-3.785,7.569c-0.521,1.042-0.792,2.189-0.792,3.354v16.032c0,11.075-4.378,21.422-12.327,29.137
	c-7.946,7.711-18.426,11.773-29.524,11.441C233.052,271.878,215.403,252.771,215.403,229.935z M254.295,287.522
	c0.577,0.018,1.151,0.026,1.726,0.026c5.704,0,11.272-0.864,16.57-2.512c0.104,2.294,0.529,4.525,1.264,6.632l-6.153,6.153
	c-3.125,3.125-7.281,4.847-11.702,4.847s-8.576-1.722-11.702-4.847l-6.154-6.154c0.75-2.152,1.178-4.433,1.27-6.778
	C244.144,286.445,249.133,287.368,254.295,287.522z M263.156,400.631c-2.401,0.118-4.792,0.177-7.184,0.177
	c-13.839,0-27.486-1.975-40.568-5.785v-50.845c0-4.142-3.358-7.5-7.5-7.5s-7.5,3.358-7.5,7.5v45.562
	c-5.856-2.433-11.557-5.252-17.064-8.45v-51.036c0-7.35,4.936-13.893,12.002-15.912l27.042-7.727
	c2.347-0.671,4.52-1.704,6.486-3.009l4.822,4.822c6.15,6.15,14.229,9.226,22.308,9.226c8.079,0,16.158-3.075,22.308-9.226
	l4.821-4.821c1.965,1.305,4.138,2.338,6.485,3.009l27.045,7.727c7.066,2.019,12.002,8.562,12.002,15.912v51.018
	c-5.502,3.195-11.2,6.025-17.064,8.463v-45.557c0-4.142-3.358-7.5-7.5-7.5s-7.5,3.358-7.5,7.5v50.838
	C285.797,398.164,274.585,400.069,263.156,400.631z"/>
<path d="M276.694,206.595c1.077,0.539,2.221,0.793,3.348,0.793c2.751,0,5.4-1.52,6.714-4.147c1.853-3.705,0.351-8.21-3.354-10.062
	c-17.416-8.708-50.069-8.808-51.451-8.808c-4.141,0-7.498,3.356-7.499,7.498c-0.001,4.141,3.355,7.5,7.497,7.502
	C240.387,199.376,264.872,200.685,276.694,206.595z"/>
<g>
</g>
<g>
</g>
<g>
</g>
<g>
</g>
<g>
</g>
<g>
</g>
<g>
</g>
<g>
</g>
<g>
</g>
<g>
</g>
<g>
</g>
<g>
</g>
<g>
</g>
<g>
</g>
<g>
</g>
</svg>
